# xmcd
#
# Track frame offsets:
# 150
# 11038
# 21276
# 31795
# 41971
# 54325
# 67511
# 79547
# 93224
# 102259
#
# Disc length: 1504 seconds
#
# Revision: 0
# Processed by: cddbd v1.4PL0 Copyright (c) Steve Scherf et al.
# Submitted via: Audion 2.6.0 (http://www.panic.com/audion/)
#
DISCID=6a05de0a
DTITLE=Jim Lauderdale - Point of No Return
DYEAR=1900
DGENRE=
TTITLE0=Stay Out of My Arms
TTITLE1=Point of No Return
TTITLE2=Hold On My Love
TTITLE3=Big Town, Small World Blues
TTITLE4=Try Not to be so Lonely
TTITLE5=Lucky 13
TTITLE6=Might Seem Like a Loser
TTITLE7=It's Better This Way
TTITLE8=Highway through My Home
TTITLE9=No One To Talk To
EXTD=
EXTT0=
EXTT1=
EXTT2=
EXTT3=
EXTT4=
EXTT5=
EXTT6=
EXTT7=
EXTT8=
EXTT9=
PLAYORDER=
